<?xml version="1.0" encoding="utf-8"?>
<!-- Generator: Adobe Illustrator 18.0.0, SVG Export Plug-In . SVG Version: 6.00 Build 0)  -->
<!DOCTYPE svg PUBLIC "-//W3C//DTD SVG 1.1//EN" "http://www.w3.org/Graphics/SVG/1.1/DTD/svg11.dtd">
<svg version="1.1" id="Layer_1" xmlns="http://www.w3.org/2000/svg" xmlns:xlink="http://www.w3.org/1999/xlink" x="0px" y="0px"
	 width="1400px" height="1400px" viewBox="0 0 1400 1400" enable-background="new 0 0 1400 1400" xml:space="preserve">
<g>
	<defs>
		<rect id="SVGID_1_" width="1400" height="1400"/>
	</defs>
	<clipPath id="SVGID_2_">
		<use xlink:href="#SVGID_1_"  overflow="visible"/>
	</clipPath>
	<g clip-path="url(#SVGID_2_)">
		<rect fill="#DAFEBC" width="1400" height="1400"/>
		<path fill="#F9FD79" d="M1272.2,1453.8c72.5-108.9,114.7-239.6,114.7-380.1c0-379.4-307.6-687-687-687s-687,307.6-687,687
			c0,167,59.6,320.1,158.7,439.1l471.8,135.5L1272.2,1453.8z"/>
		<g>
			<path fill="#94911F" d="M119.4,386.7l-3.8,16.9C146.7,429,252.8,525.9,286,697l10.5-44.2C296.5,652.8,257.2,486.2,119.4,386.7z"
				/>
			<path fill="#94911F" d="M1289.7,551l3.8,16.9c-31.2,25.3-137.3,122.3-170.5,293.3l-10.5-44.2
				C1112.6,817.1,1151.8,650.5,1289.7,551z"/>
			<path fill="#94911F" d="M394.4,633.2c-147.5-103-270.9-135-342.9-144.5l14.5,20.7c173.4,9.7,314.8,133.2,314.8,133.2L394.4,633.2
				z"/>
			<path fill="#71C163" d="M-10.1,1092c0,0,6.5-147.1,108-217.6c0,0-15.8,236.5,8.2,313.7s39.3,325.5,39.3,325.5H-19.9
				C-19.9,1513.5-21.5,1200.8-10.1,1092z"/>
			<path fill="#539E46" d="M438.5,1126.6c0,0-139.5-184.7-332.3-153.8c0,0,223,97.7,303.8,270.7L438.5,1126.6z"/>
			<path fill="#62AF52" d="M829.1,1474.2c0,0,124.1-267.9,57.9-576.8c0,0,131.6,255.7,87.8,556.6
				C974.9,1454,893.5,1631,829.1,1474.2z"/>
			<path fill="#468C38" d="M459.2,1482.2c-32.3-15.8-54.9-47-57.3-82.9c-1.3-19.5,2.9-41.4,19.5-61.6
				c44.3-53.9,107.6-77.9,107.6-77.9s40.4,84.2,25.6,145.7c-14.8,61.5-39.4,77.4-63.5,83.6C482.3,1491.4,470.6,1487.7,459.2,1482.2z
				"/>
			<path fill="#3C2515" d="M-14.9,178.3l25.4,39l38.4,152.4l-63.7,177.4l35.6,276.7l90.8,78.4l46-33.8V723.3l-16-236.6l9.5-271.3
				l134.4-66.8L402.1,0L299.4-9.1L233,106.1l-82,25.4L217.4-9.1H111.5c0,0-56.1,56.6-79.6,128.8l-62.3-44.9L-14.9,178.3z"/>
			<path fill="#71C163" d="M-10.4,598.2c0,0,41.7,38.3,75.2,89.7L60.1,700h17c0,0,38,44.1,51.1,111l-20.1,12.9l20.1,3.8
				c0,0,10.8,9.6,13.2,67c2.4,57.4-117.2,102.9-117.2,102.9l-78.9-27.6C-54.7,970.1-45.1,658-10.4,598.2z"/>
			<path fill="#468C38" d="M185.7,1293.1C126.1,1178-44.9,1049-44.9,1049s122.8-1.8,299.5,244.1H185.7z"/>
			<path fill="#492E1B" d="M303.3,651.4c2-2.7,15.6-98.3,21.5-129.5c5.9-31.2,8.5-296.7,8.5-296.7S227.8,162.7,206,147.1
				S127.4,0,127.4,0h43.1l50.8,115.9l95.6,48.8L285.4-30.5h96v158.1l50.8-35.1l29.3-123l35.9,7.8l-49.8,148.4l-68.2,76.1l42.9,596.2
				l-97.6,48c0,0-95-70.3-82.6-82C254.5,752.2,303.3,651.4,303.3,651.4z"/>
			<path fill="#3C2515" d="M1100.5,651.4c-2-2.7-15.6-98.3-21.5-129.5s-8.5-296.7-8.5-296.7s105.4-62.5,127.2-78.1
				C1219.6,131.5,1276.4,0,1276.4,0l-43.1,0l-50.8,115.9l-95.6,48.8l31.5-195.2h-96v158.1l-50.8-35.1l-29.3-123l-35.9,7.8
				l49.8,148.4l68.2,76.1l-42.9,596.2l97.6,48c0,0,104.4,83.7,92,72C1158.7,906.2,1100.5,651.4,1100.5,651.4z"/>
			<path fill="#492E1B" d="M1418.7,178.3l-25.4,39l-38.4,152.4l63.7,177.4l-35.6,276.7l-90.8,78.4l-46-33.8V723.3l16-236.6
				l-9.5-271.3l-134.4-66.8L1001.6,0l102.8-9.1l66.4,115.2l82,25.4L1186.4-9.1h105.9c0,0,56.1,56.6,79.6,128.8l62.3-44.9
				L1418.7,178.3z"/>
			<path fill="#94911F" d="M-46.1,28c0,0,33.2,2,56.6,0s32.9-9.8,32.9-9.8l5.4-9.8h24.6c0,0,17.1-31.2,13.1-39
				C82.7-38.3,25-52,20.7-52S-61.9-18.8-46.1,28z"/>
			<path fill="#897318" d="M-23.5,246.7c0,0,121.9,50.8,192.1,56.6c70.3,5.9,160.7-21.5,233.6-70.3S532.2,88.5,532.2,88.5l34.6-9.8
				c0,0-92.1,126.9-119.2,154.2c-27.2,27.3-132.6,82-279,80c0,0-183.5-19.5-265.5-58.6S-23.5,246.7-23.5,246.7z"/>
			<path fill="#897318" d="M424.3,78.8c0,0,58.6,39,175.7,52.7c117.1,13.7,304.5-31.2,374.8-64.4s236.2-140.5,236.2-140.5L1148.5,0
				c0,0-152.3,87.6-257.7,120.3S639,151,596.1,147.1S416.5,118,296.4,37.9C296.4,37.9,350.8,19.4,424.3,78.8z"/>
			<path fill="#94911F" d="M217.4-9.1c0,0,3.9,19.3,9.8,38s25.4,0,25.4,0s18.9,14.4,32.9,20.6s35.4,0,35.4,0s22.8-8.2,27.2,2.7
				c4.4,11,54.1,36.3,54.1,36.3s8.6,0.5,22.1-9.8c13.5-10.3,37.8,3.5,37.8,3.5l6.4,37.5c0,0,22.2,3.9,39.7-9.8s48.8-9.8,48.8-9.8
				l33.2,2V74.9c0,0-25.4-19-25.4-19.3s11.7,4.2,25.4,0c13.7-4.2,39,13.4,39,13.4l17.6-13.4c0,0,17,11.5,14.4,19.3
				s20.8,21.5,20.8,21.5s14.6-9.8,18.1-15.6c3.4-5.9,0-25.1,0-25.1s37.9-6.1,44.1-12c6.2-5.9,0-23.4,0-23.4L773.7,0
				c0,0,31.2,32.6,37.1,16.3s48.8-46.8,33.2-46.8s-27.3-58.6-128.8-46.8s-288.9-9-351.4-1.5s-113.2-51.2-113.2-51.2
				S213.5-96.9,217.4-9.1z"/>
			<path fill="#94911F" d="M980.4-13.2c0,0,3.9,19.3,9.8,38s25.4,0,25.4,0s18.9,14.4,32.9,20.6s35.4,0,35.4,0s22.8-8.2,27.2,2.7
				c4.4,11,54.1,36.3,54.1,36.3s8.6,0.5,22.1-9.8c13.5-10.3,37.8,3.5,37.8,3.5l6.4,37.5c0,0,22.2,3.9,39.7-9.8
				c17.6-13.7,48.8-9.8,48.8-9.8l33.2,2V70.7c0,0-25.4-19-25.4-19.3s11.7,4.2,25.4,0c13.7-4.2,39,13.4,39,13.4l17.6-13.4
				c0,0,17,11.5,14.4,19.3s20.8,21.5,20.8,21.5s14.6-9.8,18.1-15.6c3.4-5.9,0-25.1,0-25.1s37.9-6.1,44.1-12s0-23.4,0-23.4l29.6-20.2
				c0,0,31.2,32.6,37.1,16.3s48.8-46.8,33.2-46.8s-27.3-58.6-128.8-46.8s-288.9-9-351.4-1.5c-62.5,7.4-113.2-51.2-113.2-51.2
				S976.5-101.1,980.4-13.2z"/>
			<g>
				<path fill="#542C20" d="M818.2,869c0,0,104.4,477.8,89.5,474.5c-14.9-3.3-177,10.1-177,10.1l-77.1-432.6l97.3-66.8L818.2,869z"
					/>
				<polygon fill="#603626" points="557.8,817.8 717.5,885.5 717.5,1389.8 509.4,1384.7 				"/>
				<polygon fill="#F48E76" points="788.7,695.1 910.7,722.1 949.1,676.7 923.9,455.5 908.1,400.5 849.2,419.6 881.7,464.9 
					880.1,634.9 816.3,614.9 				"/>
				<path fill="#D99A5E" d="M847.5,536.2l32.6,86.5l-48,99.4C832.1,722.1,813.9,580,847.5,536.2z"/>
				<polygon fill="#ED8470" points="901.4,465.4 881.7,464.9 880.1,634.9 856.8,627.6 853.7,647.4 894.9,653.5 				"/>
				<polygon fill="#B77941" points="873.4,605.1 885,618.8 885,625.5 837.1,713.4 828.4,692.1 822.5,687.9 				"/>
				<path fill="#693D29" d="M682.1,457.3h-65.7l-111,64.5c0,0-34.5,167.2-34.5,242.5s36,125.7,36,125.7l55.5,23.1l142-270.5
					l30.7-156.9C735.2,485.7,711.8,447,682.1,457.3z"/>
				<polygon fill="#693D29" points="767.8,465.4 832.7,500.7 822.5,625.5 796,727.7 735.2,817.8 761.9,676.7 				"/>
				<path fill="#C78B4D" d="M662.5,980.2l32.9-78.2l66.8-7.2l13.6,41.5l85.9-16.1l-8.1-18.3l-17.1-58.4l10.9-307.4l-76.7-40.7
					l-62.7-9.8l-132.6,46.9c0,0-52.1,153.4-55.2,313.8l-43.8,153.8L662.5,980.2z"/>
				<path fill="#BC7D44" d="M571.7,615.2L546,800.4c0,0,20.1-2.6,25.6,0s20.2-191.8,20.2-191.8L571.7,615.2z"/>
				<path fill="#FBA084" d="M687.1,466.1v26.6l36.2,27.1l48.4-18l-6.2-38.8C765.4,463,699.2,459.5,687.1,466.1z"/>
				<path fill="#572B29" d="M642.6,346.6l2.6,42.5l46.6,30.8l109.9-62.4c0,0,8.2-30.6,6.6-32.2C806.8,323.9,678.7,308.5,642.6,346.6
					z"/>
				<path fill="#ED7C62" d="M687.1,471l59.9,39.9l8.5-3.2l12.5-29.1l-2.5-15.7c0,0-66.2-3.5-78.4,3.1V471z"/>
				<path fill="#FBA084" d="M800.8,334.1l5.7,124.5c0,0-27.4,24.7-52.5,30.3c0,0-38.8-0.5-84.4-34.5v-24.6c0,0-9.1-0.2-26.2-9.9
					c0,0-6.8-13.3,0-36c0,0,12.5-2.3,19.4,0c0,0,7.9,4.2,14.8,15.2l11.5-55.7l16-14l69.6,9.9L800.8,334.1z"/>
				<path fill="#F4917A" d="M774.5,339.3l-9.6-1.4l11.3,116.3l-36.6,32.8c9,1.8,14.4,1.9,14.4,1.9c25.1-5.6,52.5-30.3,52.5-30.3
					l-5.7-124.5L774.5,339.3z"/>
				<path fill="#572B29" d="M782.2,407.3l120.8,47l13.7-54.9l-116.8-26.8c-7.8-1.8-15.6,3.1-17.4,11
					C781.2,388.9,780.8,396.6,782.2,407.3z"/>
				<path fill="#693D29" d="M916.7,399.3c0,0-14.2-2.3-23.4,13.1c-9.2,15.4-2.7,36.4,9.7,41.9c0,0,10.9,0.7,21.3-10.3
					S935.4,403.6,916.7,399.3z"/>
				<path fill="#572B29" d="M915,406.5c0,0-10.5-1.7-17.3,9.6c-6.8,11.4-2,26.9,7.2,31c0,0,8.1,0.5,15.7-7.6
					C928.2,431.4,928.8,409.7,915,406.5z"/>
				<path fill="#F48E76" d="M867.8,387.3c0,0-12.9,5.8-15.1,11.1c-2.2,5.2,0,11.1,0,11.1s32.5,6.4,36.9,7.3
					c4.5,0.9,15-6.7,20.7-14.8c5.8-8.1-12.3-10.9-12.3-10.9L867.8,387.3z"/>
				<polygon fill="#A56937" points="713,555.4 681.9,833.1 761.7,843.5 735.6,530.5 722.2,519.8 				"/>
				<polygon fill="#C78B4D" points="637.7,319.8 611.5,357.6 845.3,331.6 813.3,305.6 				"/>
				<path fill="#C78B4D" d="M813.3,305.6l-175.6,14.2c0,0-6-33.3,17.6-62.1s89.1-42.8,122.7-12.8
					C810.6,274.1,813.3,305.6,813.3,305.6z"/>
				<path fill="#572B29" d="M738.9,381.2c-0.2,0.1-0.4,0.3-0.7,0.4c-16.8,11.1-13.3,36.7,5.8,43.2l104.4,35.7l13.7-54.9l-113.5-26.1
					C745.3,378.8,741.8,379.4,738.9,381.2z"/>
				<path fill="#FFFFFF" d="M743.4,464.1c-3.8-0.1-7.3-0.6-10.5-1.5c-28.7-8.1-37.1-29.8-35.5-45.9l5,0.5
					c-1.4,14.2,6.2,33.3,31.9,40.6c2.8,0.8,6,1.2,9.3,1.3L743.4,464.1z"/>
				<polygon fill="#B77941" points="732.5,556.3 723.4,520.7 763.5,506.5 				"/>
				<path fill="#693D29" d="M862.2,405.6c0,0-14.2-2.3-23.4,13.1c-9.2,15.4-2.7,36.4,9.7,41.9c0,0,10.9,0.7,21.3-10.3
					C880,439.3,880.9,409.9,862.2,405.6z"/>
				<path fill="#572B29" d="M860.7,412c0,0-10.9-1.8-18,10c-7.1,11.8-2.1,27.9,7.4,32.1c0,0,8.4,0.5,16.3-7.9
					C874.4,437.8,875,415.3,860.7,412z"/>
				<polygon fill="#693D29" points="825.8,754.6 828.8,526.3 791.3,506.5 797.3,775.1 847.5,817.8 853.6,787.1 				"/>
				<polygon fill="#693D29" points="674.9,491.8 674.9,555.4 614,775.1 520.2,846.4 520.2,800.4 583.4,756.2 624,561.3 624,503.9 
									"/>
				<path fill="#F48E76" d="M782.9,736.9c13.7-72.5,15.1-238.3,15.1-238.3s20.8-12.8,24.6-14.5c3.8-1.7,13-53.2,13-53.2l17.5-29.3
					c0,0-30.6-24-55.1-15.1l-28.8,23.7l-15.3,54l-40.9,199l-61-78.4l-58.3,96.8l129.7,87.6C723.4,769.1,766.6,750.1,782.9,736.9z"/>
				<polygon fill="#D99A5E" points="593.9,517.5 565.2,531.3 546,584.6 593.7,695.1 681.9,606.3 628.3,534.6 				"/>
				<path fill="#693D29" d="M637,309.8c0,6.2,0.7,10,0.7,10l175.6-14.2L637,309.8z"/>
				<polygon fill="#B27640" points="645.3,324.8 626.7,349.1 713.6,336.9 710.9,318 				"/>
				<polygon fill="#572B29" points="749.7,362.6 749,369.7 708.9,365.6 715.2,353.5 				"/>
				<polygon fill="#572B29" points="770.3,365.6 774.5,364.4 777.4,366.9 797.9,349.1 807.1,355.9 804,363.6 797,360.6 782,374.1 
					773.8,374.1 				"/>
				<polygon fill="#B77941" points="669.6,491.6 666.2,506.2 714.2,556 723.4,520.4 687.3,493.3 687.3,486.5 				"/>
				<polygon fill="#B77941" points="579.2,684.3 681.9,592.7 690.5,611 681.9,620.6 686.2,622 593.7,702.1 589.3,689.2 582.6,689.7 
									"/>
				<polygon fill="#E2A471" points="591.8,533.3 623,547.8 662.5,600.2 642,618.8 614,558.2 				"/>
				<polygon fill="#693D29" points="509.4,800.4 681.9,833.1 761.7,835.4 839.4,804.6 846.5,846.4 766,871.4 677.9,871.4 
					509.4,846.4 				"/>
				<path fill="#ED8470" d="M752.1,737.2L707,758l16.5,11.1c0,0,43.2-19,59.5-32.3c13.7-72.5,15.1-238.3,15.1-238.3l-17.6,9.9
					L752.1,737.2z"/>
				<path fill="#FFFFFF" d="M706.6,419.3c-7.5-1.2-14.2,0-14.3,0l-0.9-4.9c0.3-0.1,7.6-1.3,15.9,0L706.6,419.3z"/>
				<polygon fill="#603626" points="681.9,833.1 759.8,856.6 766,871.4 846.5,846.4 839.4,804.6 761.7,835.4 				"/>
				<path fill="#B27742" d="M749.7,237.1c0,0,39,12.6,54.6,60.4l-23.1,1.3C781.3,298.9,778.1,256.1,749.7,237.1z"/>
			</g>
			<path fill="#231F20" d="M660.3,1425l-0.5-1c-0.7-1.4-72.8-146.9-213.9-254.2l-5.5-4.2l6.7,1.5c0.4,0.1,43.4,10,102,45.1
				c34.4,20.6,67.4,45.6,98.2,74.5c38.4,36.1,73.3,78.2,103.7,125.2l1.3,2L660.3,1425z M453.7,1172.1
				C585.4,1274.6,655.6,1409,662,1421.8l85.1-10.2c-30-46-64.2-87.2-101.9-122.6c-30.6-28.7-63.4-53.6-97.6-74.1
				c-30.4-18.2-56.3-29.4-72.7-35.6C465.9,1175.8,458.6,1173.5,453.7,1172.1z"/>
			<path fill="#2E5E2E" d="M695.8,1400c0,0-21.8-280,218-464.6c0,0-136.6,197-140,477.3L695.8,1400z"/>
			<path fill="#62AF52" d="M721.4,1387.4c0,0,5.7-191.9,166.4-283.1c0,0-109,179-89.5,322.5L721.4,1387.4z"/>
			<path fill="#62AF52" d="M1099.3,1118.1c0,0-262.9,57.4-294.7,305.3l81.7-23.4C886.3,1400,937.1,1198.5,1099.3,1118.1z"/>
			<path fill="#539E46" d="M967.6,941.8c0,0,47.5,91.8-5.5,478.5l87-25.6C1049.1,1394.8,1101.9,1030.2,967.6,941.8z"/>
			<path fill="#71C163" d="M1492.5,1325.5c0,0,8.1-128.7-63.7-264.8l-32.7-2.1l23-18.7l-6-12.4l-39.4,6.2l30.5-24.9
				c0,0-46.8-85.7-142-132.9c0,0-26.4,45.8-35.1,80.6l20.2,23.4l-25.5-8.1c0,0-40.9,92.3-55.5,207.5s9.8,332.7,9.8,332.7
				L1492.5,1325.5z"/>
			<path fill="#62AF52" d="M733.2,1069.4l-37.9,16.6l34.8-36.9c-4.9-34.3-7.9-67.7-7.9-98.6c0,0-107.9,39-174.4,167.5
				s-50.5,328.2-50.5,328.2l325.9-46.3C823.2,1400,759.4,1229.8,733.2,1069.4z"/>
			<path fill="#2E5E2E" d="M975.8,1073.4c0,0-148,68.2-226,339.3l71.5-18.1C821.2,1394.6,885.1,1173.2,975.8,1073.4z"/>
			<path fill="#2E5E2E" d="M1361,1412.7c0,0-14-167.7-116-309.7c0,0,116,74,188,272l-24,71.3L1361,1412.7z"/>
			<path fill="#539E46" d="M1213,1430.3c4-11.3,148-239.8,126-407.6c0,0,120,108.8-32,407.6H1213z"/>
			<path fill="#2E5E2E" d="M-74,1115.7c35.8-2.7,130.9,86.9,188.3,235.1c0,0,0.3,100.9,57,22.8c56.8-78.1-27.7-195.9-27.7-195.9
				S96.3,1046.4-74,990.3C-244.2,934.2-74,1115.7-74,1115.7z"/>
			<path fill="#468C38" d="M114.6,947c0,0,64.6-153.1,171-254.7s303.7-167.4,422.1-167.4c0,0-45.4,34.7-61,46.6
				c-15.5,12-23.7,20.3-23.7,20.3s-52.8-10.8-49.2-9.6s38.3,15.5,38.3,15.5s-92.8,59.8-109.8,65.8c-17,6-17,6-17,6l-74.1-13.2
				l56.2,25.1c0,0-65.8,59.8-70.5,63.4c-4.8,3.6-4.8,3.6-4.8,3.6L344.2,736l25.1,20.9c0,0-29.9,37.1-33.5,43
				c-3.6,6-24.1,20.4-24.1,20.4l-40.4-27.5l32.3,40.9l-80.2,74.8l-53.8,5L114.6,947z"/>
			<path fill="#62AF52" d="M77.2,618.5c0,0,70.1,148.3,80.3,250.1L206,757.3c0,0-40.3-104.1-119.4-159.1
				C7.5,543.2,77.2,618.5,77.2,618.5z"/>
			<path fill="#539E46" d="M335.2,765.3c0,0,76.1-43.9,138.6-54.2c62.5-10.2,123,0,123,0s-48.8,30.7-87.8,54.2l-33.2-18.4l23.4,28.2
				c0,0-21.4,13.3-53.6,34l-27.1-16.4l11.3,27.3l-11.3,15.1l-38.4-26l38.4,34.3l-30.9,27.3l-104.4,58.7l-141.2,17.2l-8.6-33
				l-26-33.8C107.4,879.7,278.5,765.3,335.2,765.3z"/>
			<path fill="#468C38" d="M-15.2,416.4c0,0,37.1-40.7,53.8-53.8l10.2,7.2v-16.7c0,0,29.9-22.7,78.6-28.7c0,0-1.5,26.3-9.9,51.4
				l-14.3-5.4l8.3,11.4c0,0-20.5,50.2-46.7,88.5H44L56.1,481c0,0-37.8,70.6-71.3,99.3C-48.7,609-156.3,571.9-15.2,416.4z"/>
			<path fill="#2E5E2E" d="M16.9,953.4c0,0,51.3-100.3,151.7-161.2s241.5-62.2,261.9-58.6c0,0-50.2,22.7-59.8,27.5
				s-63.4,28.7-63.4,28.7l-14.3-8.4l5.8,14.3c0,0-51.5,26.3-62.7,35.9c-11.2,9.6-24.4,19.2-24.4,19.2l-38.3-14.4l31.1,21.5
				c0,0-28.8,22.5-41.4,31.1l-22-16.3l14.3,26.4L73,983.5l-26.2,14.6C46.8,998.1,7.7,969.4,16.9,953.4z"/>
			<path fill="#468C38" d="M991.4,753.8c0,0-76.1-43.9-138.6-54.2s-123,0-123,0s48.8,30.7,87.8,54.2l33.2-18.4l-23.4,28.2
				c0,0,21.4,13.3,53.6,34l27.1-16.4l-11.3,27.3l11.3,15.1l38.4-26l-38.4,34.3l30.9,27.3l104.4,58.7l141.2,17.2l94.2,28.4
				l-59.7-95.3C1219.2,868.2,1048,753.8,991.4,753.8z"/>
			<path fill="#539E46" d="M1249.2,946.3c1.3-3.9-27.5-37.5-54.9-54l-8.9,10v-14.8c0,0-37.4-14.4-54.4-15.8l-6.7,7.6l-2.9-7.6
				c0,0-30.8-9.6-41.1-10.3l-6.9,8.2l-4.8-8.2c0,0-59.7-29.5-200.5,30.2c0,0,46,20.6,63.2,31.6l17.9-10.3l-6.9,14.4
				c0,0,28.8,13.9,38.5,19c0,0,24.7-31.3,35.7-38.9c0,0-11,29.9-15.1,43.1l39.8,20.1l17.5-20.1l-12,20.1c0,0,45.7,19.6,58.4,25.4
				l16.4-19.9l-9.5,19.9l40.5,20.6C1152.4,1016.7,1221.7,1030.5,1249.2,946.3z"/>
			<path fill="#897318" d="M1221,545.6l-16.3,8.1c-3.5-18.5-0.5-35.6-0.5-35.6c9-4.2,26.7-8.2,48.2-9.8l3.2,14.7l6-15.2
				c12.5-0.5,25.9-0.2,39.4,1.4V523l10.8-12.3c10.2,1.7,20.3,4.1,29.9,7.5c7.9,2.7,15,5.7,21.4,8.6l-0.6,11.7l6.8-8.7
				c8,4,14.7,8.1,20.3,11.9l-12.2,24.3l23-16.2c8.2,6.8,11.7,11.4,11.7,11.4c27.5,45.4,49,159-32.3,129.1
				c-30.3-11.1-59.2-26.6-84.4-42.8l15-25.3l-28.1,16.5c-35.7-24.7-61.8-49.8-69.8-63.2c-1.8-3-3.3-6.1-4.5-9.4L1221,545.6z"/>
			<path fill="#62AF52" d="M67.6,1002.3c-3-5.6,32.1-64.7,69.8-97.2l16.3,13l-3.9-22.7c0,0,53.5-32,79.2-38.6l12.2,9.8l2.4-12.3
				c0,0,44.6-22.9,60.2-26.6l12.7,10.8l5.2-13.9c0,0,83.7-61,315-6.8c0,0-65,43.7-88.4,65.1l-30.1-11l14.3,20.3
				c0,0-40.5,28.9-53.9,39.2c0,0-46.1-41.4-65-50.1c0,0,24.7,42.9,34.5,62l-55.7,41.2l-32.1-26.1l23.7,27.5c0,0-64.8,42-82.7,54.4
				l-30.3-26.2l19.8,28l-56.6,42.3C234.4,1084.4,131.9,1124,67.6,1002.3z"/>
			<path fill="#62AF52" d="M1421.9,416.4c0,0-37.1-40.7-53.8-53.8l-10.2,7.2v-16.7c0,0-29.9-22.7-78.6-28.7c0,0,1.5,26.3,9.9,51.4
				l14.3-5.4l-8.3,11.4c0,0,20.5,50.2,46.7,88.5h20.8l-12.1,10.8c0,0,37.8,70.6,71.3,99.3C1455.4,609,1563,571.9,1421.9,416.4z"/>
			<path fill="#468C38" d="M1417.1,574.9c0,0-41.7,38.3-75.2,89.7l4.7,12.1h-17c0,0-38,44.1-51.1,111l20.1,12.9l-20.1,3.8
				c0,0-10.8,9.6-13.2,67s117.2,102.9,117.2,102.9l78.9-27.6C1461.4,946.8,1451.8,634.7,1417.1,574.9z"/>
			<path fill="#468C38" d="M818.9,1382.9c0,0-12.5-218.2,65.6-479.8c0,0,89.8,421,50.8,601.9
				C896.3,1685.9,815.5,1523.2,818.9,1382.9z"/>
			<path fill="#94911F" d="M1002.4,1207.9c0,0-52.4-208.9-231.7-353.8c0,0,191.9,84.7,305.1,275.5
				C1075.8,1129.6,1110.8,1267.4,1002.4,1207.9z"/>
			<path fill="#94911F" d="M287.2,1136.9c0,0,1-215.4,140.4-398.9c0,0-166.1,128.2-230.4,340.4
				C197.2,1078.4,196.1,1220.5,287.2,1136.9z"/>
			<path fill="#2E5E2E" d="M185.7,545.6l16.3,8.1c3.5-18.5,0.5-35.6,0.5-35.6c-9-4.2-26.7-8.2-48.2-9.8L151,523l-6-15.2
				c-12.5-0.5-25.9-0.2-39.4,1.4V523l-10.8-12.3c-10.2,1.7-20.3,4.1-29.9,7.5c-7.9,2.7-15,5.7-21.4,8.6l0.6,11.7l-6.8-8.7
				c-8,4-14.7,8.1-20.3,11.9L29,565.9L6,549.7c-8.2,6.8-11.7,11.4-11.7,11.4c-27.5,45.4-49,159,32.3,129.1
				c30.3-11.1,59.2-26.6,84.4-42.8l-15-25.3l28.1,16.5c35.7-24.7,61.8-49.8,69.8-63.2c1.8-3,3.3-6.1,4.5-9.4L185.7,545.6z"/>
			<path fill="#2E5E2E" d="M1471.2,1103c0,0-27.7-163.8-108-287.1S1106,583.3,990.7,556.1c0,0,36.3,44.2,48.7,59.4
				s18.4,25.2,18.4,25.2s53.9,1.6,50.1,2c-3.8,0.3-40.8,6.4-40.8,6.4s76.6,79.5,91.7,89.2s15.2,9.7,15.2,9.7l75.2,4.2l-60.5,11.6
				c0,0,50.3,73.3,54.1,77.9s3.8,4.6,3.8,4.6l49.4-1.2l-29.2,14.6c0,0,20.6,42.9,22.7,49.6c2.1,6.6,18.8,25.4,18.8,25.4l45.7-17.5
				l-40.9,32.4l60.9,91.2l51.2,17.2L1471.2,1103z"/>
			<path fill="#539E46" d="M118.2,1405.6c0,0-63.1-112.5-57.4-266.2l28.5-16.1l-28.9-6.9v-13.8l38.2-11.5l-38.2-9.2
				c0,0,5-97.5,70.4-181.3c0,0,43.6,29.8,66.6,57.4l-8,29.8l19.5-18.4c0,0,76.9,65.4,140,163s135.4,304.1,135.4,304.1L118.2,1405.6z
				"/>
			<path fill="#2E5E2E" d="M151,978.4c0,0,76.4,215,132.1,441.7l50.1-20.2C333.2,1400,225.1,1089.7,151,978.4z"/>
			<path fill="#2E5E2E" d="M83,1349.1c0,0-23.3,14.8-54.9,5.3s-47.7-38.8-47.7-38.8s13.5-32.8,53.3-35.8c39.8-3,54.6,32.8,55.8,42.3
				S83,1349.1,83,1349.1z"/>
			<path fill="#2E5E2E" d="M-11.9,1405.1c0,0,6.6-42.7,45.5-60.9c0,0,31.5,7.8,39.8,47.2s0,43.5,0,43.5S-3.5,1444.5-11.9,1405.1z"/>
			<path fill="#897318" d="M960.9,902.4c0,0,67.7,34.4,144.6,190.5l33.3-95.2C1138.8,997.6,1048.1,912.7,960.9,902.4z"/>
			<path fill="#2E5E2E" d="M50.7,1292.6c0,0-40.8-11.2-51-46.2c-10.2-35-1.1-51-1.1-51s15-8.5,48.5,2.4c33.5,10.9,43,39.5,43,39.5
				S84.8,1287.8,50.7,1292.6z"/>
			<path fill="#2E5E2E" d="M90.2,1340.9c-14.3-7-24.3-20.8-25.4-36.7c-0.6-8.6,1.3-18.3,8.6-27.3c19.6-23.9,47.6-34.5,47.6-34.5
				s17.9,37.3,11.3,64.5c-6.6,27.2-17.4,34.2-28.1,37C100.4,1344.9,95.2,1343.3,90.2,1340.9z"/>
			<path fill="#2E5E2E" d="M78.2,1402.7c0,0-18.7-17.4-4.7-68c0,0,29.2-2.4,47.6,17.3c18.5,19.7,20.3,60.7,20.3,60.7L78.2,1402.7z"
				/>
			<path fill="#2E5E2E" d="M183.4,1301.9c0,0-36.7,2.4-55.2,29.8s-2.8,64.3-2.8,64.3s36.2,3.7,58-14.2s13.4-74.9,13.4-74.9
				L183.4,1301.9z"/>
			<path fill="#2E5E2E" d="M1073.6,1336.1c0,0-20.9,36-63.9,43c-43,7-68.5-19.7-81.3-53.4c0,0-7-33.7-5.8-53.4
				c0,0,22.1,30.2,54.6,36s54.6-5.8,54.6-5.8s11.6-18.6-11.6-19.7c-23.2-1.2-67.6,1.2-97.7-58.1c0,0-6.8-34.8,4.8-63.9
				c0,0,22.1,45.3,56.9,68.5s54.6,11.6,54.6,11.6s9.3-10.5-18.6-23.2c-27.9-12.8-74.3-47.6-81.3-87.1c0,0,18.6-58.1,53.4-88.3
				c0,0,8.1,51.1,30.2,70.8c22.1,19.7,23.2-3.5,10.5-22.1c-12.8-18.6-18.6-54.6-18.6-74.3c0,0,41.8-37.2,70.8-43
				c0,0-10.5,45.3,0,58.1c10.5,12.8,27.9-5.8,22.1-22.1c-5.8-16.3,2.3-49.9,19.7-60.4c17.4-10.5,53.4-13.9,53.4-13.9
				s29,29,34.8,45.3c5.8,16.3-4.6,49.9-18.6,62.7c-13.9,12.8,18.6,20.9,33.7-30.2c0,0,34.8,38.3,33.7,82.5
				c-1.2,44.1-20.9,59.2-39.5,72c-18.6,12.8-18.6,23.2-5.8,24.4c12.8,1.2,44.1-29,51.1-45.9c0,0,18.6,59.8,0,101.6
				c-18.6,41.8-37.2,53.4-55.7,54.6c-18.6,1.2-33.7,8.1-33.7,19.7s39.5,5.8,60.4-9.3c0,0-13.9,36-34.8,54.6
				c-20.9,18.6-48.8,18.5-76.6,12.7c-27.9-5.8-39.5-37.1-39.5-37.1l-10.5,69.7l-23.2-4.6C1056.2,1408.1,1069,1391.8,1073.6,1336.1z"
				/>
			<path fill="#62AF52" d="M1332.1,1027.7c0,0-18-111.2-94.8-200.1s-210.7-133.5-231.1-136.3c0,0,40.8,37.1,48.4,44.6
				c7.6,7.5,51.5,46.8,51.5,46.8l16.2-3.5l-9.9,11.9c0,0,40.9,40.9,48.6,53.4c7.7,12.6,17.3,25.8,17.3,25.8l40.8-1.9l-36.2,10.9
				c0,0,20.5,30.3,29.8,42.3l26-8.8l-21.8,20.7l52.5,105.7l20.4,21.9C1289.9,1061,1336,1045.7,1332.1,1027.7z"/>
			<path fill="#468C38" d="M1424.1,1120.2c0,0-43.2-32.1-60.2-39.2v-22.6l-14.2,16.6c0,0-60.3-32-77.7-48.7l33.3-22.6
				c0,0-41.5,6.6-48.1,14c0,0-30.4-33-39.9-41.3c0,0,53.5-43.3,103.4-60.8c49.9-17.6,77.2-0.9,110.5,21.6
				C1464.5,959.7,1451.4,1097.6,1424.1,1120.2z"/>
			<path fill="#71C163" d="M494.6,1149.1c0,0-31.6-221.6-209.2-285.8c0,0,142.9,187.1,130.3,371.4L494.6,1149.1z"/>
			<g>
				<path fill="#62AF52" d="M1210.6,1468.1l-57.1-1.4l48.1-39.8c0,0-20.4-61.7-33.9-84.7l-63.5,6.6l39.9-75.6
					c0,0-42.1-48.1-54.4-60.7l-31.1,37l-0.1-68.7l-39.1-22.6l-16,35.2l-21.7-57.8c0,0-112.7-64.5-191.1-78.2c0,0,44.9,99.9,64,160.2
					l37.1,19.3l-31.5,7.6l40.9,110.3l70.6,4.5l-53.8,15.2c0,0,35.4,71.6,41.1,88.1l26.8,4.8l-22.3,7.7c0,0,79.5,113.9,135,129.4
					c37.1,2.9,75.4-20.7,75.4-20.7C1210.9,1538.4,1210.6,1468.1,1210.6,1468.1z"/>
				<path fill="#2E5E2E" d="M846,1083.4c0,0,115.2,72.3,199.4,250.4c0,0,61.1,115.1,42,245.5c0,0,5.1-123.3-49.9-240.3
					C964.8,1184.6,846,1083.4,846,1083.4z"/>
				<polygon fill="#71C163" points="1091.4,1247.3 1119.2,1275.6 1087.1,1342.5 1076.6,1307.3 				"/>
				<path fill="#62AF52" d="M928,1333.6c15.9-0.8,82.7,0.4,82.7,0.4l-14.1-27l-79.6,2.1L928,1333.6z"/>
				<path fill="#62AF52" d="M1049.7,1448c0,0,14.2,45.5,13.8,107.1l-20.3-9.8C1043.2,1545.3,1054,1488.3,1049.7,1448z"/>
				<path fill="#71C163" d="M1187.5,1490.8c0,0-6.6,51.1-22.8,83.7l-24.9,4.1L1187.5,1490.8z"/>
			</g>
			<path fill="#2E5E2E" d="M732.1,1208.3c-17.4,39.9-50,66.2-67.4,62.4c-17.5-3.7-7.5-13.7,25-37.4c32.5-23.7,42.4-63.7,42.4-63.7
				c1.2-82.4-41.2-137.3-41.2-137.3c0,33.7-49.9,103.6-64.9,88.6c-15-15,3.7-25,21.2-53.7c17.5-28.7,20-52.4,6.2-89.9
				c-13.7-37.4-76.1-72.4-76.1-72.4c8.7,41.2-20,89.9-32.5,88.6c-12.5-1.2-6.2-18.7,1.2-36.2c7.5-17.5,12.5-58.7,0-73.7
				c-12.5-15-61.2-38.7-61.2-38.7s-20,8.7-38.7,37.4c-18.7,28.7-17.5,64.9,5,94.9c22.5,30,5,39.9-21.2,12.5
				c-26.2-27.5-18.7-69.9-18.7-69.9c-22.5,16.2-30,37.4-30,37.4c1.2,47.4,37.4,61.2,59.9,71.2c22.5,10,23.7,33.7-20,15
				c-43.7-18.7-64.9-46.2-64.9-46.2c-15,26.2-38.7,89.9-18.7,119.8c20,30,56.2,39.9,88.6,46.2c32.5,6.2,35,31.2-8.7,26.2
				c-43.7-5-92.4-41.2-92.4-41.2c2.5,113.6,42.4,172.3,42.4,172.3c52.4,22.5,92.4-6.2,111.7-11.2c19.3-5,36.8,13.7,0,32.5
				c-36.8,18.7-98,8.7-98,8.7c38.7,89.9,108.6,94.9,147.3,84.9c42.4-15,36.2-93.6,36.2-93.6c2.9,8.4,6,20.6,8.9,34.1l0,0
				c0,0,15.6,88.2,21.4,125l0,0l5.8,36.9l12.5-73.6c0,0-20-84.9-23.7-122.4c51.2,57.4,104,27.5,104,27.5c12.9-9.4,23-21.6,32-36.3
				C752,1290.7,732.1,1208.3,732.1,1208.3z"/>
			<path fill="#468C38" d="M-44.2,1140.8c0,0,40-29.7,55.7-36.3v-20.9l13.1,15.4c0,0,55.8-29.6,71.9-45.1L65.8,1033
				c0,0,38.4,6.1,44.5,13c0,0,28.1-30.6,36.9-38.3c0,0-49.5-40-95.7-56.3C5.3,935-20,950.4-50.8,971.3
				C-81.6,992.3-69.5,1119.9-44.2,1140.8z"/>
			<path fill="#94911F" d="M159.9,1110c0,0-9.6-64,51.2-77.2C211.1,1032.9,225.4,1086.6,159.9,1110z"/>
			<path fill="#94911F" d="M661,1342.3c0,0-38.3-17.7-23.7-55.5C637.4,1286.7,671.8,1298.2,661,1342.3z"/>
			<path fill="#94911F" d="M928.2,572.4c0,0,38.9-31.3,71.3,4.1C999.5,576.5,969.3,606.9,928.2,572.4z"/>
			<path fill="#71C163" d="M371.5,553.3c0,0,15.9-45.4,60.5-32.9C431.9,520.4,422.7,560.7,371.5,553.3z"/>
			<path fill="#71C163" d="M1105.3,656.9c0,0,42.2-23,66.9,16.1C1172.3,673,1138.4,696.7,1105.3,656.9z"/>
			<path fill="#71C163" d="M30.5,375.6c0,0,39-28.2,68.4,7.6C99,383.1,68.4,410.9,30.5,375.6z"/>
			<path fill="#2E5E2E" d="M727.9,736.4c0,0,41.7,23.8,21.4,65.4C749.3,801.8,711.4,785.4,727.9,736.4z"/>
			<path fill="#2E5E2E" d="M879.5,104.1c0,0,36.5-17.5,60.4,28.8C939.8,132.9,900.2,148.2,879.5,104.1z"/>
			<path fill="#2E5E2E" d="M18.5,818.1c0,0,20.2-35.1,66.1-10.4C84.6,807.7,60.6,842.7,18.5,818.1z"/>
			<path fill="#2E5E2E" d="M626.4,895c0,0,20.2-35.1,66.1-10.4C692.4,884.6,668.4,919.7,626.4,895z"/>
			<path fill="#2E5E2E" d="M118,419.6c0,0,20.2-35.1,66.1-10.4C184,409.2,160,444.3,118,419.6z"/>
			<path fill="#94911F" d="M997.1,794.9c0,0-17,47.9,35.4,50.4C1032.5,845.3,1047.9,805.3,997.1,794.9z"/>
			<path fill="#94911F" d="M1308,275.9c0,0-47.6,17.7-16,59.4C1291.9,335.3,1332.6,321.5,1308,275.9z"/>
			<path fill="#2E5E2E" d="M888.2,1243.3c0,0,1,60.9,61.9,89.1C950.1,1332.5,972.5,1261.1,888.2,1243.3z"/>
			<g>
				<path fill="#62AF52" d="M142,1602.1l57.1-1.4l-48.1-39.8c0,0,20.4-61.7,33.9-84.7l63.5,6.6l-39.9-75.6c0,0,42.1-48.1,54.4-60.7
					l31.1,37l0.1-68.7l39.1-22.6l16,35.2l21.7-57.8c0,0,112.7-64.5,191.1-78.2c0,0-44.9,99.9-64,160.2l-37.1,19.3l31.5,7.6
					l-40.9,110.3l-70.6,4.5l53.8,15.2c0,0-35.4,71.6-41.1,88.1l-26.8,4.8l22.3,7.7c0,0-79.5,113.9-135,129.4
					c-37.1,2.9-75.4-20.7-75.4-20.7C141.7,1672.4,142,1602.1,142,1602.1z"/>
				<path fill="#2E5E2E" d="M506.7,1217.4c0,0-115.2,72.3-199.4,250.4c0,0-61.1,115.1-42,245.5c0,0-5.1-123.3,49.9-240.3
					C387.8,1318.6,506.7,1217.4,506.7,1217.4z"/>
				<polygon fill="#71C163" points="261.2,1381.3 233.4,1409.6 265.5,1476.5 276,1441.3 				"/>
				<path fill="#62AF52" d="M424.6,1467.6c-15.9-0.8-82.7,0.4-82.7,0.4l14.1-27l79.6,2.1L424.6,1467.6z"/>
				<path fill="#62AF52" d="M303,1582c0,0-14.2,45.5-13.8,107.1l20.3-9.8C309.4,1679.3,298.6,1622.3,303,1582z"/>
				<path fill="#71C163" d="M165.1,1624.8c0,0,6.6,51.1,22.8,83.7l24.9,4.1L165.1,1624.8z"/>
			</g>
		</g>
	</g>
</g>
</svg>
